<svg width="170" height="61" viewBox="0 0 170 61" fill="none" xmlns="http://www.w3.org/2000/svg">
<g clip-path="url(#clip0_686_34)">
<path fill-rule="evenodd" clip-rule="evenodd" d="M16.2979 29.0741L10.2212 35.2247C4.42645 31.052 3.38649 23.8655 8.24616 19.8786C12.7913 16.1496 20.5588 16.2023 26.3916 19.4555C27.0454 19.8201 28.3569 20.6187 29.2773 21.4983C26.0128 20.9303 24.6807 21.0357 19.7573 25.8162L8.88305 24.5365L6.77167 25.8162L16.2979 29.0741Z" fill="white"/>
<path fill-rule="evenodd" clip-rule="evenodd" d="M21.9864 28.4324L24.7813 26.2715C30.4531 30.6098 31.0206 37.2536 26.0477 41.0984C21.0749 44.9433 10.8285 44.6217 5.10205 37.837C5.10205 37.837 5.60297 38.0388 6.20228 38.2803C7.44305 38.7802 8.85588 38.5846 9.91414 37.7664C12.7329 35.587 18.0493 31.4765 18.0493 31.4765L19.1173 41.7266L20.8577 39.9755L21.9864 28.4324Z" fill="white"/>
</g>
<path d="M46.8504 39.2907C43.9755 39.2907 41.6982 38.4347 40.0185 36.7227L41.884 34.1062C43.273 35.5598 44.985 36.2866 47.02 36.2866C47.9083 36.2866 48.5947 36.117 49.0793 35.7779C49.5799 35.4225 49.8303 34.9945 49.8303 34.4939C49.8303 34.0578 49.5961 33.6944 49.1277 33.4037C48.6755 33.1129 48.1021 32.903 47.4076 32.7738C46.7293 32.6446 45.9863 32.4588 45.1788 32.2166C44.3712 31.9743 43.6202 31.6997 42.9257 31.3929C42.2474 31.086 41.674 30.6015 41.2056 29.9393C40.7534 29.2771 40.5273 28.4695 40.5273 27.5166C40.5273 26.1276 41.0845 24.9647 42.1989 24.028C43.3133 23.0751 44.7992 22.5986 46.6566 22.5986C49.2246 22.5986 51.3243 23.3496 52.9555 24.8517L51.0416 27.3712C49.7657 26.1922 48.199 25.6027 46.3417 25.6027C45.6149 25.6027 45.0496 25.7481 44.6458 26.0388C44.242 26.3295 44.0401 26.7252 44.0401 27.2259C44.0401 27.6135 44.2663 27.9446 44.7185 28.2192C45.1869 28.4776 45.7602 28.6714 46.4386 28.8006C47.1331 28.9298 47.876 29.1236 48.6674 29.382C49.475 29.6243 50.2179 29.907 50.8963 30.23C51.5908 30.5368 52.1641 31.0295 52.6163 31.7078C53.0847 32.37 53.3189 33.1695 53.3189 34.1062C53.3189 35.6567 52.7617 36.9084 51.6473 37.8614C50.549 38.8143 48.9501 39.2907 46.8504 39.2907ZM57.0888 26.0388C56.5881 26.0388 56.152 25.8611 55.7806 25.5058C55.4252 25.1343 55.2476 24.6982 55.2476 24.1976C55.2476 23.6969 55.4252 23.2689 55.7806 22.9136C56.152 22.5582 56.5881 22.3806 57.0888 22.3806C57.6056 22.3806 58.0417 22.5582 58.397 22.9136C58.7524 23.2689 58.93 23.6969 58.93 24.1976C58.93 24.6982 58.7524 25.1343 58.397 25.5058C58.0417 25.8611 57.6056 26.0388 57.0888 26.0388ZM58.6393 39H55.5625V27.2986H58.6393V39ZM79.3029 39H76.2019V31.6109C76.2019 30.3673 75.6204 29.7454 74.4575 29.7454C73.9569 29.7454 73.4885 29.8827 73.0524 30.1573C72.6325 30.4319 72.2933 30.7468 72.0349 31.1021V39H68.9339V31.6109C68.9339 30.3673 68.3525 29.7454 67.1896 29.7454C66.705 29.7454 66.2447 29.8827 65.8087 30.1573C65.3726 30.4319 65.0253 30.7549 64.7669 31.1264V39H61.6901V27.2986H64.7669V28.8248C65.0576 28.4049 65.5664 28.0011 66.2932 27.6135C67.02 27.2097 67.7872 27.0078 68.5947 27.0078C70.2906 27.0078 71.3727 27.7185 71.8411 29.1398C72.2126 28.5583 72.7617 28.0577 73.4885 27.6377C74.2314 27.2178 75.0228 27.0078 75.8627 27.0078C76.961 27.0078 77.8089 27.3066 78.4065 27.9042C79.0041 28.4857 79.3029 29.3659 79.3029 30.5449V39ZM89.4616 39H85.1492L78.8988 22.8409H82.8235L87.3054 35.2691L91.7631 22.8409H95.6878L89.4616 39ZM98.6336 26.0388C98.1329 26.0388 97.6968 25.8611 97.3254 25.5058C96.97 25.1343 96.7924 24.6982 96.7924 24.1976C96.7924 23.6969 96.97 23.2689 97.3254 22.9136C97.6968 22.5582 98.1329 22.3806 98.6336 22.3806C99.1504 22.3806 99.5865 22.5582 99.9418 22.9136C100.297 23.2689 100.475 23.6969 100.475 24.1976C100.475 24.6982 100.297 25.1343 99.9418 25.5058C99.5865 25.8611 99.1504 26.0388 98.6336 26.0388ZM100.184 39H97.1073V27.2986H100.184V39ZM112.271 39H102.726V36.6985L108.008 29.9877H102.726V27.2986H112.175V29.5274L106.82 36.3108H112.271V39ZM125.172 39H114.9V22.8409H118.341V35.9717H125.172V39ZM137.446 39H134.369V37.7887C133.529 38.79 132.294 39.2907 130.662 39.2907C129.612 39.2907 128.668 38.9515 127.828 38.2732C127.004 37.5787 126.592 36.6258 126.592 35.4145C126.592 34.1547 126.996 33.2098 127.804 32.58C128.627 31.9501 129.58 31.6351 130.662 31.6351C132.326 31.6351 133.561 32.1116 134.369 33.0645V31.4898C134.369 30.8922 134.135 30.4157 133.666 30.0604C133.198 29.7051 132.576 29.5274 131.801 29.5274C130.525 29.5274 129.386 29.9877 128.385 30.9083L127.222 28.8491C128.611 27.6216 130.315 27.0078 132.334 27.0078C133.836 27.0078 135.063 27.3551 136.016 28.0496C136.969 28.7441 137.446 29.8747 137.446 31.4413V39ZM131.898 37.2072C133.045 37.2072 133.868 36.8681 134.369 36.1897V34.7361C133.868 34.0578 133.045 33.7186 131.898 33.7186C131.268 33.7186 130.743 33.8801 130.323 34.2031C129.903 34.51 129.693 34.938 129.693 35.4871C129.693 36.0201 129.903 36.4401 130.323 36.7469C130.743 37.0538 131.268 37.2072 131.898 37.2072ZM143.574 35.2449C143.833 35.6164 144.212 35.9313 144.713 36.1897C145.214 36.432 145.714 36.5531 146.215 36.5531C147.103 36.5531 147.822 36.2462 148.371 35.6325C148.92 35.0026 149.195 34.1789 149.195 33.1614C149.195 32.1439 148.92 31.3202 148.371 30.6903C147.822 30.0604 147.103 29.7454 146.215 29.7454C145.714 29.7454 145.214 29.8747 144.713 30.1331C144.212 30.3915 143.833 30.7145 143.574 31.1021V35.2449ZM143.574 39H140.497V22.8409H143.574V28.8006C144.495 27.6054 145.698 27.0078 147.184 27.0078C148.702 27.0078 149.946 27.5651 150.915 28.6795C151.884 29.7939 152.369 31.2879 152.369 33.1614C152.369 35.0672 151.884 36.5693 150.915 37.6675C149.946 38.7497 148.702 39.2907 147.184 39.2907C145.73 39.2907 144.527 38.6931 143.574 37.498V39ZM158.908 39.2907C157.891 39.2907 156.914 39.1292 155.977 38.8062C155.056 38.4832 154.289 38.039 153.675 37.4737L155.008 35.3176C155.46 35.7375 156.074 36.109 156.849 36.432C157.624 36.755 158.359 36.9165 159.054 36.9165C159.7 36.9165 160.184 36.8035 160.507 36.5773C160.846 36.3512 161.016 36.0444 161.016 35.6567C161.016 35.366 160.838 35.1318 160.483 34.9542C160.144 34.7603 159.716 34.6231 159.199 34.5423C158.698 34.4616 158.141 34.3404 157.527 34.1789C156.93 34.0174 156.372 33.8236 155.856 33.5975C155.355 33.3714 154.927 33.016 154.572 32.5315C154.232 32.0308 154.063 31.4171 154.063 30.6903C154.063 29.6566 154.491 28.7845 155.347 28.0738C156.203 27.3632 157.374 27.0078 158.86 27.0078C160.669 27.0078 162.243 27.5408 163.584 28.6068L162.348 30.7145C161.977 30.3269 161.476 30.0039 160.846 29.7454C160.233 29.487 159.578 29.3578 158.884 29.3578C158.335 29.3578 157.891 29.4709 157.551 29.697C157.212 29.907 157.043 30.1815 157.043 30.5207C157.043 30.7791 157.212 30.9972 157.551 31.1748C157.891 31.3363 158.319 31.4575 158.835 31.5382C159.352 31.619 159.91 31.7482 160.507 31.9258C161.105 32.0874 161.662 32.2892 162.179 32.5315C162.696 32.7576 163.124 33.1291 163.463 33.6459C163.802 34.1628 163.972 34.7927 163.972 35.5356C163.972 36.6339 163.519 37.5383 162.615 38.249C161.727 38.9435 160.491 39.2907 158.908 39.2907Z" fill="#F5F5F5"/>
<defs>
<clipPath id="clip0_686_34">
<rect width="24.5429" height="26.5359" fill="white" transform="translate(5 17.0449)"/>
</clipPath>
</defs>
</svg>
